<?xml version="1.0" encoding="utf-8"?>
<svg fill="#000000" width="800px" height="800px" viewBox="0 0 24 24" id="note" data-name="Line Color" xmlns="http://www.w3.org/2000/svg" class="icon line-color" xmlns:bx="https://boxy-svg.com"><defs><bx:export><bx:file format="svg" href="#object-0" path="Untitled 3.svg"/><bx:file format="svg" path="Markdown icon.svg"/></bx:export></defs><title>Markdown icon</title><path id="secondary" d="M 19.067 2.575 L 15.534 2.575 L 15.534 3.754 C 15.534 4.403 15.006 4.93 14.356 4.93 L 9.643 4.93 C 8.994 4.93 8.466 4.403 8.466 3.754 L 8.466 2.575 L 4.932 2.575 C 4.281 2.575 3.753 3.102 3.753 3.754 L 3.753 21.423 C 3.753 22.074 4.281 22.602 4.932 22.602 L 19.067 22.602 C 19.718 22.602 20.246 22.074 20.246 21.423 L 20.246 3.754 C 20.246 3.102 19.718 2.575 19.067 2.575 Z" style="fill: rgb(44, 169, 188); stroke-width: 2;"/><rect id="primary" x="8.466" y="1.398" width="7.068" height="3.535" rx="1" style="fill: none; stroke: rgb(0, 0, 0); stroke-linecap: round; stroke-linejoin: round; stroke-width: 2;"/><path id="primary-2" data-name="primary" d="M 19.067 2.575 C 19.718 2.575 20.246 3.102 20.246 3.754 L 20.246 21.423 C 20.246 22.074 19.718 22.602 19.067 22.602 L 4.932 22.602 C 4.281 22.602 3.753 22.074 3.753 21.423 L 3.753 3.754 C 3.753 3.102 4.281 2.575 4.932 2.575" style="fill: none; stroke: rgb(0, 0, 0); stroke-linecap: round; stroke-linejoin: round; stroke-width: 2;"/><path d="M 17.596 16.025 L 6.402 16.025 C 5.88 16.025 5.458 15.601 5.458 15.08 L 5.458 8.916 C 5.458 8.396 5.88 7.973 6.402 7.973 L 17.596 7.973 C 18.118 7.973 18.54 8.396 18.54 8.916 L 18.54 15.08 C 18.541 15.601 18.118 16.023 17.596 16.023 L 17.596 16.025 Z M 8.603 14.136 L 8.603 11.684 L 9.861 13.258 L 11.117 11.684 L 11.117 14.136 L 12.376 14.136 L 12.376 9.86 L 11.117 9.86 L 9.861 11.431 L 8.603 9.86 L 7.345 9.86 L 7.345 14.139 L 8.603 14.136 Z M 17.031 11.998 L 15.773 11.998 L 15.773 9.86 L 14.516 9.86 L 14.516 11.998 L 13.257 11.998 L 15.144 14.201 L 17.031 11.998 Z" style="" id="object-0"/></svg>